<svg width="255" height="269" viewBox="0 0 255 269" fill="none" xmlns="http://www.w3.org/2000/svg">
<g clip-path="url(#clip0_11_13)">
<path d="M142.969 43.25C159.011 43.2479 174.646 48.2369 187.651 57.5077C200.655 66.7786 210.367 79.8593 215.406 94.8903C215.761 96.106 216.362 97.2384 217.171 98.2198C217.98 99.2013 218.981 100.012 220.115 100.602C221.248 101.193 222.491 101.552 223.769 101.657C225.046 101.763 226.332 101.613 227.55 101.217C228.767 100.821 229.891 100.186 230.854 99.351C231.818 98.5161 232.6 97.4979 233.155 96.3576C233.711 95.2172 234.027 93.978 234.086 92.7141C234.144 91.4502 233.944 90.1877 233.497 89.002C226.88 69.2828 213.838 52.2783 196.403 40.6399C178.969 29.0015 158.123 23.3832 137.114 24.661C116.106 25.9389 96.1161 34.041 80.2619 47.7041C64.4077 61.3673 53.5801 79.8236 49.4672 100.195C35.0891 102.112 21.9867 109.35 12.814 120.444C3.6413 131.538 -0.915863 145.657 0.0656433 159.943C1.04715 174.229 7.49393 187.612 18.1001 197.382C28.7063 207.152 42.6789 212.579 57.1875 212.562H295.469C297.997 212.562 300.421 211.571 302.208 209.807C303.996 208.043 305 205.651 305 203.156C305 200.662 303.996 198.269 302.208 196.505C300.421 194.741 297.997 193.75 295.469 193.75H57.1875C47.0761 193.752 37.3779 189.791 30.2263 182.737C23.0746 175.682 19.0555 166.113 19.053 156.134C19.0504 146.156 23.0648 136.585 30.2128 129.527C37.3608 122.469 47.057 118.502 57.1684 118.5H57.6641C60.0203 118.514 62.2984 117.666 64.0585 116.12C65.8187 114.574 66.9362 112.44 67.1953 110.128C69.2816 91.7359 78.1629 74.7471 92.1414 62.4095C106.12 50.0719 124.215 43.2508 142.969 43.25ZM305 127.906C305 125.412 303.996 123.019 302.208 121.255C300.421 119.491 297.997 118.5 295.469 118.5H162.031C159.503 118.5 157.079 119.491 155.292 121.255C153.504 123.019 152.5 125.412 152.5 127.906C152.5 130.401 153.504 132.793 155.292 134.557C157.079 136.321 159.503 137.312 162.031 137.312H295.469C297.997 137.312 300.421 136.321 302.208 134.557C303.996 132.793 305 130.401 305 127.906ZM305 165.531C305 163.037 303.996 160.644 302.208 158.88C300.421 157.116 297.997 156.125 295.469 156.125H123.906C121.378 156.125 118.954 157.116 117.167 158.88C115.379 160.644 114.375 163.037 114.375 165.531C114.375 168.026 115.379 170.418 117.167 172.182C118.954 173.947 121.378 174.938 123.906 174.938H295.469C297.997 174.938 300.421 173.947 302.208 172.182C303.996 170.418 305 168.026 305 165.531Z" fill="#3A9EDD"/>
</g>
<defs>
<clipPath id="clip0_11_13">
<rect width="305" height="301" fill="white" transform="matrix(-1 0 0 1 305 -32)"/>
</clipPath>
</defs>
</svg>
