<svg width="296" height="271" viewBox="0 0 296 271" fill="none" xmlns="http://www.w3.org/2000/svg">
<g clip-path="url(#clip0_95_309)">
<path d="M149.565 68.4181C133.172 68.4162 117.196 72.8932 103.908 81.2126C90.6201 89.532 80.6963 101.27 75.5475 114.759C75.1845 115.85 74.5714 116.866 73.7447 117.747C72.9181 118.627 71.8949 119.354 70.7364 119.884C69.578 120.415 68.3081 120.737 67.0027 120.831C65.6973 120.926 64.3833 120.792 63.1392 120.436C61.8952 120.08 60.7467 119.511 59.7625 118.762C58.7783 118.012 57.9786 117.099 57.4113 116.075C56.844 115.052 56.5207 113.94 56.4608 112.806C56.4009 111.672 56.6056 110.539 57.0627 109.475C63.8237 91.7792 77.1503 76.5199 94.9648 66.0759C112.779 55.6319 134.08 50.5902 155.547 51.7369C177.014 52.8836 197.439 60.1542 213.639 72.4151C229.839 84.6761 240.903 101.238 245.105 119.519C259.797 121.239 273.185 127.735 282.558 137.69C291.93 147.645 296.587 160.316 295.584 173.135C294.581 185.955 287.994 197.965 277.156 206.732C266.319 215.5 252.042 220.369 237.217 220.355H-6.2609C-8.84387 220.355 -11.321 219.465 -13.1475 217.882C-14.9739 216.299 -16 214.152 -16 211.914C-16 209.675 -14.9739 207.528 -13.1475 205.945C-11.321 204.362 -8.84387 203.473 -6.2609 203.473H237.217C247.548 203.475 257.458 199.92 264.766 193.59C272.073 187.259 276.18 178.672 276.183 169.718C276.185 160.763 272.083 152.174 264.779 145.841C257.476 139.507 247.568 135.948 237.236 135.945H236.73C234.322 135.958 231.994 135.197 230.196 133.81C228.397 132.423 227.255 130.507 226.99 128.433C224.859 111.928 215.784 96.6828 201.5 85.6114C187.217 74.5399 168.727 68.4188 149.565 68.4181V68.4181ZM-16 144.386C-16 142.148 -14.9739 140.001 -13.1475 138.418C-11.321 136.835 -8.84387 135.945 -6.2609 135.945H130.086C132.669 135.945 135.147 136.835 136.973 138.418C138.799 140.001 139.826 142.148 139.826 144.386C139.826 146.625 138.799 148.772 136.973 150.355C135.147 151.938 132.669 152.827 130.086 152.827H-6.2609C-8.84387 152.827 -11.321 151.938 -13.1475 150.355C-14.9739 148.772 -16 146.625 -16 144.386ZM-16 178.15C-16 175.911 -14.9739 173.764 -13.1475 172.181C-11.321 170.598 -8.84387 169.709 -6.2609 169.709H169.043C171.626 169.709 174.103 170.598 175.929 172.181C177.756 173.764 178.782 175.911 178.782 178.15C178.782 180.389 177.756 182.536 175.929 184.119C174.103 185.702 171.626 186.591 169.043 186.591H-6.2609C-8.84387 186.591 -11.321 185.702 -13.1475 184.119C-14.9739 182.536 -16 180.389 -16 178.15Z" fill="#3A9EDD"/>
</g>
<defs>
<clipPath id="clip0_95_309">
<rect width="311.651" height="270.109" fill="white" transform="translate(-16 0.890808)"/>
</clipPath>
</defs>
</svg>
